<svg width="44" height="46" viewBox="0 0 44 46" fill="none" xmlns="http://www.w3.org/2000/svg">
<g filter="url(#filter0_d_303_403)">
<path d="M11.7501 6C12.7501 5 12.0001 2 10.3121 2C8.62407 2 8.75007 4 9.75007 4C10.7501 4 10.7501 6 10.7501 7C10.7501 8 11.7501 6 11.7501 6ZM7.56707 7.72C8.56707 6.72 7.81707 3.72 6.12907 3.72C4.44107 3.72 4.56707 5.72 5.56707 5.72C6.56707 5.72 6.56707 7.72 6.56707 8.72C6.56707 9.72 7.56707 7.72 7.56707 7.72Z" fill="#AA8DD8"/>
<path d="M33.942 34.856C34.131 35.664 35.169 37.136 35.974 36.947C36.78 36.757 37.051 34.976 36.862 34.17C36.673 33.362 35.864 32.863 35.058 33.053C34.253 33.243 33.752 34.05 33.942 34.856ZM28.508 35.505C28.511 36.335 29.189 38.003 30.017 38C30.845 37.996 31.511 36.323 31.508 35.494C31.505 34.665 30.831 33.997 30.003 33.999C29.175 34.003 28.505 34.676 28.508 35.505ZM23.237 33.059C22.911 33.823 22.872 35.622 23.633 35.949C24.396 36.273 25.67 35.002 25.996 34.239C26.321 33.477 25.968 32.596 25.207 32.269C24.445 31.944 23.564 32.296 23.237 33.059ZM18.206 22.019C17.394 22.191 15.898 23.192 16.067 24.002C16.24 24.812 18.012 25.126 18.824 24.955C19.635 24.784 20.153 23.988 19.984 23.178C19.812 22.368 19.019 21.848 18.206 22.019ZM16.169 17.019C15.357 17.191 13.861 18.192 14.03 19.002C14.203 19.812 15.975 20.126 16.787 19.955C17.598 19.784 18.116 18.988 17.947 18.178C17.775 17.368 16.981 16.848 16.169 17.019Z" fill="#744EAA"/>
<path d="M31.5791 36C34.41 36 36.505 35.123 36.845 34.973C39.1161 33.963 40.1381 31.304 39.1291 29.034C38.1301 26.784 35.5131 25.759 33.2571 26.72C33.1241 26.77 31.4641 27.369 29.9141 26.648C28.0631 25.787 26.9191 23.339 26.2861 21.439C26.1421 21.009 25.9011 20.165 25.6 19.123C23.7341 12.652 22.7681 10.838 21.6171 9.30299C17.906 4.35199 12.0251 4.00699 9.13405 4.58699C6.69705 5.07399 5.11605 7.44499 5.60405 9.88199C6.09205 12.32 8.46405 13.902 10.9001 13.412C11.0621 13.386 13.1041 13.106 14.3241 14.581C14.9671 15.868 16.4041 19.709 16.9541 21.615C17.3001 22.814 17.5831 23.786 17.7481 24.282C19.5211 29.599 22.4141 33.175 26.3511 34.911C28.2031 35.729 30.0051 36 31.5791 36Z" fill="#9266CC"/>
<path d="M11.0171 8C11.5694 8 12.0171 7.55228 12.0171 7C12.0171 6.44772 11.5694 6 11.0171 6C10.4648 6 10.0171 6.44772 10.0171 7C10.0171 7.55228 10.4648 8 11.0171 8Z" fill="#202024"/>
<path d="M35.2581 34.964C35.1691 34.964 35.0781 34.952 34.9891 34.928C34.4571 34.78 34.1451 34.229 34.2931 33.697C35.0501 30.975 33.5231 29.155 33.5081 29.137C33.1491 28.718 33.1961 28.086 33.6151 27.727C34.0331 27.368 34.6661 27.415 35.0251 27.834C35.1171 27.941 37.2591 30.494 36.2201 34.231C36.0981 34.674 35.6951 34.964 35.2581 34.964ZM28.0591 34.401C27.8141 34.401 27.5691 34.312 27.3751 34.131C26.9721 33.753 26.9511 33.12 27.3281 32.717C28.8131 31.13 28.7811 28.524 28.7801 28.497C28.7641 27.945 29.1991 27.485 29.7521 27.469C30.2941 27.464 30.7651 27.888 30.7801 28.441C30.7841 28.58 30.8531 31.878 28.7891 34.085C28.5921 34.295 28.3251 34.401 28.0591 34.401ZM19.5171 25.705C19.0371 25.705 18.6131 25.358 18.5321 24.868C18.4421 24.324 18.8101 23.808 19.3551 23.719C22.4291 23.209 24.1291 21.342 24.1461 21.323C24.5111 20.913 25.1441 20.874 25.5551 21.239C25.9671 21.604 26.0081 22.232 25.6461 22.645C25.5591 22.744 23.4901 25.06 19.6821 25.691C19.6261 25.701 19.5711 25.705 19.5171 25.705ZM22.4381 30.562C22.0131 30.562 21.6191 30.29 21.4841 29.864C21.3181 29.338 21.6101 28.775 22.1361 28.609C24.8291 27.756 26.0161 25.779 26.0281 25.759C26.3081 25.282 26.9201 25.122 27.3961 25.402C27.8731 25.681 28.0321 26.295 27.7531 26.77C27.6901 26.878 26.1581 29.433 22.7401 30.514C22.6391 30.547 22.5371 30.562 22.4381 30.562ZM17.8191 19.892C17.3231 19.892 16.8921 19.523 16.8281 19.017C16.7591 18.469 17.1471 17.969 17.6951 17.899C20.3841 17.559 22.3521 15.928 22.3711 15.911C22.7931 15.557 23.4241 15.608 23.7791 16.03C24.1351 16.451 24.0841 17.08 23.6641 17.437C23.5671 17.52 21.2441 19.466 17.9461 19.883C17.9031 19.889 17.8611 19.892 17.8191 19.892ZM15.9981 15.125C15.5731 15.125 15.1791 14.852 15.0441 14.424C14.8791 13.897 15.1711 13.336 15.6981 13.17C18.8281 12.187 19.9511 10.478 19.9971 10.406C20.2921 9.944 20.9081 9.801 21.3721 10.094C21.8371 10.386 21.9831 10.993 21.6961 11.46C21.6361 11.557 20.1901 13.856 16.2971 15.079C16.1981 15.11 16.0971 15.125 15.9981 15.125Z" fill="#744EAA"/>
</g>
<defs>
<filter id="filter0_d_303_403" x="-2.16663" y="0" width="48" height="48" filterUnits="userSpaceOnUse" color-interpolation-filters="sRGB">
<feFlood flood-opacity="0" result="BackgroundImageFix"/>
<feColorMatrix in="SourceAlpha" type="matrix" values="0 0 0 0 0 0 0 0 0 0 0 0 0 0 0 0 0 0 127 0" result="hardAlpha"/>
<feOffset dy="4"/>
<feGaussianBlur stdDeviation="2"/>
<feComposite in2="hardAlpha" operator="out"/>
<feColorMatrix type="matrix" values="0 0 0 0 0 0 0 0 0 0 0 0 0 0 0 0 0 0 0.25 0"/>
<feBlend mode="normal" in2="BackgroundImageFix" result="effect1_dropShadow_303_403"/>
<feBlend mode="normal" in="SourceGraphic" in2="effect1_dropShadow_303_403" result="shape"/>
</filter>
</defs>
</svg>
